<svg xmlns="http://www.w3.org/2000/svg" height="8.584mm" width="58.523mm" viewBox="0 0 207.36606 30.413973"><path d="M15.39 8.44q1.016.02 1.992.176.996.136 1.992.39l-1.445 5.41q-1.016-.253-2.032-.39-1.016-.156-2.07-.176-4.14-.04-6.328 3.438L5.293 30.003H0L3.67 8.87h4.923l-.547 3.476q.704-.86 1.504-1.582.8-.722 1.72-1.23.917-.528 1.933-.8 1.035-.294 2.187-.294zM21.89 19.37q.273-2.227 1.152-4.22.9-2.01 2.325-3.514t3.36-2.364q1.952-.86 4.335-.8 2.285.04 3.926.937 1.64.897 2.656 2.382 1.035 1.465 1.426 3.38.39 1.913.175 4.003l-.058.43q-.274 2.226-1.172 4.218-.88 1.973-2.305 3.457-1.426 1.485-3.38 2.344-1.932.84-4.296.78-2.265-.038-3.906-.917-1.64-.898-2.676-2.344-1.015-1.464-1.425-3.36-.39-1.913-.176-4.003l.04-.41zm5.254.41q-.098.977-.078 2.07.02 1.075.332 2.012.332.918 1.035 1.563.723.625 1.992.664 1.328.038 2.285-.548.977-.606 1.622-1.543.664-.958 1.015-2.11.37-1.172.527-2.286l.04-.41q.058-.644.078-1.348.04-.722-.06-1.406-.077-.703-.292-1.328-.195-.644-.586-1.133-.37-.49-.957-.782-.586-.312-1.426-.352-1.346-.04-2.323.547-.957.586-1.62 1.543-.645.957-1.036 2.13-.37 1.17-.507 2.304l-.04.41zM54 26.07q.78.02 1.484-.195.723-.215 1.29-.625.585-.43.976-1.055.41-.625.527-1.406l4.96-.04q-.096 1.797-.956 3.242-.858 1.426-2.206 2.422-1.328.996-2.988 1.523-1.64.508-3.34.47-2.285-.04-3.926-.92-1.62-.878-2.636-2.323-.996-1.465-1.387-3.36-.39-1.914-.176-4.004l.06-.605q.273-2.207 1.152-4.18.88-1.972 2.305-3.437 1.426-1.485 3.34-2.324 1.933-.84 4.277-.782 1.816.04 3.28.645 1.466.605 2.482 1.7 1.035 1.073 1.543 2.577.526 1.485.428 3.3l-4.98-.02q.058-.78-.117-1.463-.175-.702-.585-1.21t-1.035-.8q-.625-.314-1.465-.353-1.348-.04-2.305.528-.937.566-1.562 1.504-.625.917-.977 2.07-.35 1.132-.487 2.245l-.078.586q-.098.94-.098 2.032 0 1.094.293 2.03.293.92.957 1.564.683.625 1.953.664zM77.19 21.31l-2.97 2.44L73.128 30h-5.293L73.05 0h5.292l-2.95 16.896 1.76-1.7L83.85 8.87h6.72l-9.493 9.023 6.562 12.11h-6.173L77.19 21.31zM101.52 30.39q-2.168-.04-3.926-.82-1.738-.8-2.95-2.15-1.19-1.366-1.757-3.202-.566-1.836-.37-3.984l.077-.8q.254-2.228 1.192-4.24.937-2.01 2.422-3.515 1.503-1.505 3.496-2.384t4.336-.82q2.207.06 3.808.918t2.578 2.305q.996 1.424 1.348 3.28.37 1.855.117 3.906l-.35 2.305H97.73q-.04 1.016.254 1.895.293.86.84 1.504.567.644 1.387 1.034.82.37 1.876.39 1.66.06 3.125-.565 1.485-.646 2.618-1.818l2.402 2.95q-.703 1.015-1.718 1.738-.996.722-2.168 1.19-1.153.47-2.403.685t-2.42.195zm2.13-17.54q-1.056-.038-1.896.353-.84.39-1.503 1.054-.644.664-1.132 1.504-.49.84-.86 1.7h8.614l.097-.488q.136-.86-.04-1.602-.176-.742-.625-1.29-.43-.546-1.113-.858-.664-.332-1.543-.37zM132.97 8.44q1.016.02 1.992.176.996.136 1.992.39l-1.445 5.41q-1.017-.253-2.032-.39-1.016-.156-2.07-.176-4.14-.04-6.33 3.438l-2.206 12.715h-5.293l3.67-21.133h4.923l-.547 3.476q.704-.86 1.504-1.582.8-.722 1.72-1.23.917-.528 1.933-.8 1.035-.294 2.187-.294zM138.09 30l4.94-28.438 8.986.02q1.797.04 3.476.468 1.68.41 2.95 1.328 1.27.9 1.972 2.325.703 1.425.547 3.476-.097 1.17-.507 2.148-.41.957-1.093 1.718-.665.762-1.563 1.368-.88.585-1.914 1.015.977.35 1.66.976.703.625 1.133 1.426.43.8.605 1.757.177.937.12 1.913-.158 2.247-1.115 3.868-.957 1.622-2.46 2.657-1.485 1.035-3.4 1.523-1.913.47-3.964.45h-10.37zm7.56-12.54l-1.408 8.106 4.473.04q.977-.02 1.875-.274.918-.254 1.64-.762.743-.527 1.23-1.29.49-.76.646-1.796.273-1.835-.567-2.87-.84-1.055-2.677-1.133l-5.214-.02zm.682-3.964l3.73.04q.958 0 1.876-.216t1.66-.683q.762-.47 1.27-1.192.507-.742.663-1.796.138-.978-.096-1.642-.235-.684-.742-1.094-.508-.43-1.25-.625-.743-.216-1.622-.235l-4.18-.02-1.308 7.46zM183.07 17.85q-.254 1.582-.742 3.144t-1.25 2.97q-.742 1.405-1.758 2.616-.996 1.192-2.266 2.05-1.27.86-2.793 1.33-1.522.468-3.32.43-1.698-.04-3.026-.567-1.31-.547-2.285-1.446-.958-.918-1.583-2.11-.625-1.21-.957-2.577-.332-1.387-.39-2.87-.06-1.486.136-2.95l.644-4.14q.235-1.564.703-3.107.49-1.562 1.192-2.968.722-1.407 1.7-2.618.975-1.21 2.206-2.07 1.23-.88 2.735-1.348 1.504-.49 3.282-.45 1.718.04 3.046.567 1.348.527 2.344 1.445 1.016.898 1.68 2.11.664 1.19 1.016 2.577.37 1.367.45 2.87.077 1.504-.118 2.99l-.645 4.12zm-4.785-4.18q.098-.722.156-1.582.06-.86 0-1.72-.038-.877-.233-1.698-.196-.82-.606-1.465-.41-.644-1.073-1.054-.664-.41-1.66-.448-1.074-.04-1.895.312-.82.332-1.445.957-.605.607-1.055 1.427-.45.8-.76 1.7-.294.898-.49 1.835-.195.918-.312 1.758l-.645 4.2q-.097.683-.175 1.522-.06.84-.06 1.72.02.878.177 1.718.156.84.527 1.504.37.664.996 1.094.645.41 1.64.45 1.055.038 1.895-.294.84-.352 1.485-.957.664-.606 1.152-1.426.488-.82.82-1.718.352-.918.567-1.855.213-.938.35-1.778l.645-4.2zM206.58 17.85q-.254 1.582-.742 3.144t-1.25 2.97q-.742 1.405-1.758 2.616-.996 1.192-2.266 2.05-1.27.86-2.793 1.33-1.522.468-3.32.43-1.698-.04-3.026-.567-1.31-.547-2.285-1.446-.958-.918-1.583-2.11-.625-1.21-.957-2.577-.332-1.387-.39-2.87t.136-2.95l.644-4.14q.235-1.564.703-3.107.49-1.562 1.192-2.968.722-1.407 1.7-2.618.975-1.21 2.206-2.07 1.23-.88 2.735-1.348 1.504-.49 3.282-.45 1.718.04 3.046.567 1.348.527 2.344 1.445 1.016.898 1.68 2.11.664 1.19 1.016 2.577.37 1.367.45 2.87.077 1.504-.118 2.99l-.645 4.12zm-4.785-4.18q.098-.722.156-1.582.06-.86 0-1.72-.038-.877-.233-1.698-.196-.82-.606-1.465-.41-.644-1.073-1.054-.664-.41-1.66-.448-1.074-.04-1.895.312-.82.332-1.445.957-.605.607-1.055 1.427-.45.8-.76 1.7-.294.898-.49 1.835-.195.918-.312 1.758l-.645 4.2q-.097.683-.175 1.522-.06.84-.06 1.72.02.878.177 1.718.156.84.527 1.504.37.664.996 1.094.645.41 1.64.45 1.055.038 1.895-.294.84-.352 1.485-.957.664-.606 1.152-1.426.488-.82.82-1.718.352-.918.567-1.855.214-.938.35-1.778l.645-4.2z"/></svg>