<?xml version="1.0" encoding="UTF-8" standalone="no"?>
<!-- Created with Inkscape (http://www.inkscape.org/) -->
<svg id="svg2" xmlns:rdf="http://www.w3.org/1999/02/22-rdf-syntax-ns#" xmlns="http://www.w3.org/2000/svg" height="19.298mm" width="118.33mm" version="1.1" xmlns:cc="http://creativecommons.org/ns#" xmlns:dc="http://purl.org/dc/elements/1.1/" viewBox="0 0 419.28224 68.378903">
 <metadata id="metadata7">
  <rdf:RDF>
   <cc:Work rdf:about="">
    <dc:format>image/svg+xml</dc:format>
    <dc:type rdf:resource="http://purl.org/dc/dcmitype/StillImage"/>
    <dc:title/>
   </cc:Work>
  </rdf:RDF>
 </metadata>
 <g id="layer1" transform="translate(-166.15 -259.15)">
  <g id="text3336">
   <path id="path4250" d="m189.14 286.39q-1.8457-0.30761-3.999-0.30761-7.998 0-10.854 6.8115v33.75h-8.1299v-47.549h7.9102l0.13184 5.4932q3.999-6.3721 11.338-6.3721 2.373 0 3.6035 0.61524v7.5586z"/>
   <path id="path4252" d="m193.53 302.43q0-6.9873 2.7246-12.568 2.7686-5.581 7.6465-8.6133 4.9219-3.0322 11.206-3.0322 9.7119 0 15.688 6.7236 6.0205 6.7236 6.0205 17.886v0.57129q0 6.9434-2.6807 12.48-2.6367 5.4932-7.6025 8.5693-4.9219 3.0762-11.338 3.0762-9.668 0-15.688-6.7236-5.9766-6.7236-5.9766-17.798v-0.57129zm8.1738 0.9668q0 7.9102 3.6475 12.7 3.6914 4.79 9.8438 4.79 6.1963 0 9.8438-4.834 3.6475-4.8779 3.6475-13.623 0-7.8223-3.7354-12.656-3.6914-4.8779-9.8438-4.8779-6.0205 0-9.7119 4.79t-3.6914 13.711z"/>
   <path id="path4254" d="m266.08 320.89q4.3506 0 7.6025-2.6367 3.252-2.6367 3.6035-6.5918h7.6904q-0.21973 4.0869-2.8125 7.7783t-6.9434 5.8887q-4.3066 2.1973-9.1406 2.1973-9.7119 0-15.469-6.46-5.7129-6.5039-5.7129-17.754v-1.3623q0-6.9434 2.5488-12.349 2.5488-5.4053 7.2949-8.3936 4.79-2.9883 11.294-2.9883 7.998 0 13.271 4.79 5.3174 4.79 5.669 12.437h-7.6904q-0.35156-4.6143-3.5156-7.5586-3.1201-2.9883-7.7344-2.9883-6.1963 0-9.624 4.4824-3.3838 4.4385-3.3838 12.876v1.5381q0 8.2178 3.3838 12.656 3.3838 4.4385 9.668 4.4385z"/>
   <path id="path4256" d="m307.39 304.63-5.0977 5.3174v16.699h-8.1299v-67.5h8.1299v40.825l4.3506-5.2295 14.81-15.645h9.8877l-18.501 19.863 20.654 27.686h-9.5361l-16.567-22.017z"/>
   <path id="path4258" d="m358.68 327.53q-9.668 0-15.732-6.3281-6.0645-6.3721-6.0645-17.007v-1.4941q0-7.0752 2.6807-12.612 2.7246-5.5811 7.5586-8.7012 4.8779-3.1641 10.547-3.1641 9.2725 0 14.414 6.1084 5.1416 6.1084 5.1416 17.49v3.3838h-32.212q0.17578 7.0312 4.0869 11.382 3.9551 4.3066 10.02 4.3066 4.3066 0 7.2949-1.7578t5.2295-4.6582l4.9658 3.8672q-5.9766 9.1846-17.93 9.1846zm-1.0107-42.627q-4.9219 0-8.2617 3.6035-3.3398 3.5596-4.1309 10.02h23.818v-0.61524q-0.35157-6.1963-3.3398-9.5801-2.9883-3.4277-8.0859-3.4277z"/>
   <path id="path4260" d="m409.57 286.39q-1.8457-0.30761-3.999-0.30761-7.998 0-10.854 6.8115v33.75h-8.1299v-47.549h7.9102l0.13183 5.4932q3.999-6.3721 11.338-6.3721 2.373 0 3.6035 0.61524v7.5586z"/>
   <path id="path4262" d="m418.27 326.65v-63.984h20.918q10.415 0 15.645 4.3066 5.2734 4.3066 5.2734 12.744 0 4.4824-2.5488 7.9541-2.5488 3.4277-6.9434 5.3174 5.1856 1.4502 8.1738 5.5371 3.0322 4.043 3.0322 9.668 0 8.6133-5.5811 13.535-5.581 4.9219-15.776 4.9219h-22.192zm8.4375-29.927v23.027h13.931q5.8887 0 9.2725-3.0322 3.4277-3.0762 3.4277-8.4375 0-11.558-12.568-11.558h-14.062zm0-6.7676h12.744q5.5371 0 8.833-2.7686 3.3398-2.7686 3.3398-7.5146 0-5.2734-3.0762-7.6465-3.0762-2.417-9.3604-2.417h-12.48v20.347z"/>
   <path id="path4264" d="m523.56 296.72q0 9.4043-3.1641 16.436-3.1641 6.9873-8.9648 10.679-5.8008 3.6914-13.535 3.6914-7.5586 0-13.403-3.6914-5.8447-3.7354-9.0967-10.591-3.208-6.8994-3.2959-15.952v-4.6143q0-9.2285 3.208-16.304 3.208-7.0752 9.0527-10.811 5.8887-3.7793 13.447-3.7793 7.6904 0 13.535 3.7354 5.8887 3.6914 9.0527 10.767 3.1641 7.0312 3.1641 16.392v4.043zm-8.3936-4.1309q0-11.382-4.5703-17.446-4.5703-6.1084-12.788-6.1084-7.998 0-12.612 6.1084-4.5703 6.0645-4.7022 16.875v4.7022q0 11.03 4.6143 17.358 4.6582 6.2842 12.788 6.2842 8.1738 0 12.656-5.9326 4.4824-5.9766 4.6143-17.095v-4.7461z"/>
   <path id="path4266" d="m585.43 296.72q0 9.4043-3.1641 16.436-3.1641 6.9873-8.9648 10.679-5.8008 3.6914-13.535 3.6914-7.5586 0-13.403-3.6914-5.8447-3.7354-9.0967-10.591-3.208-6.8994-3.2959-15.952v-4.6143q0-9.2285 3.208-16.304 3.208-7.0752 9.0527-10.811 5.8887-3.7793 13.447-3.7793 7.6904 0 13.535 3.7354 5.8887 3.6914 9.0527 10.767 3.1641 7.0312 3.1641 16.392v4.043zm-8.3936-4.1309q0-11.382-4.5703-17.446-4.5703-6.1084-12.788-6.1084-7.998 0-12.612 6.1084-4.5703 6.0645-4.7022 16.875v4.7022q0 11.03 4.6143 17.358 4.6582 6.2842 12.788 6.2842 8.1738 0 12.656-5.9326 4.4824-5.9766 4.6143-17.095v-4.7461z"/>
  </g>
 </g>
</svg>
