<?xml version="1.0" encoding="UTF-8" standalone="no"?>
<svg id="svg4497" xmlns:rdf="http://www.w3.org/1999/02/22-rdf-syntax-ns#" xmlns="http://www.w3.org/2000/svg" height="8.5824mm" width="32.302mm" version="1.1" xmlns:cc="http://creativecommons.org/ns#" xmlns:dc="http://purl.org/dc/elements/1.1/" viewBox="0 0 114.4553 30.410151">
 <g id="layer1" transform="translate(-92.171 -339.51)">
  <g id="text4505" fill="#afe">
   <path id="path4522" d="m111.04 357.04h-11.328l-1.4062 8.0273h13.262l-0.78125 4.4336h-18.613l4.9414-28.438h18.555l-0.78125 4.4726h-13.184l-1.25 7.168h11.348l-0.76172 4.3359z"/>
   <path id="path4524" d="m121.88 339.51h11.484l-4.4336 25.586h5.8789l-0.78125 4.4141h-17.363l0.78125-4.4141h6.1328l3.6719-21.152h-6.1524l0.78125-4.4336z"/>
   <path id="path4526" d="m144.16 348.37h11.191l-2.9102 16.719h5.5664l-0.78125 4.4141h-16.738l0.76172-4.4141h5.8398l2.1289-12.285h-5.8398l0.78125-4.4336zm6.3867-5.3125q0-0.66406 0.23437-1.2109 0.23438-0.54688 0.64453-0.9375 0.42969-0.41016 0.97657-0.625 0.5664-0.23438 1.2109-0.23438 0.625-0.0195 1.1719 0.17578 0.54687 0.19531 0.95703 0.56641 0.41016 0.37109 0.64453 0.89844 0.25391 0.52734 0.25391 1.1719 0 0.66406-0.23438 1.2109-0.23437 0.54687-0.64453 0.95703-0.41016 0.39062-0.97656 0.625-0.56641 0.21484-1.2109 0.21484-0.625 0.0195-1.1719-0.17578-0.54688-0.19531-0.95704-0.5664-0.41015-0.3711-0.66406-0.89844-0.23437-0.52735-0.23437-1.1719z"/>
   <path id="path4528" d="m180.76 347.94q1.0156 0.0195 1.9922 0.17578 0.99609 0.13672 1.9922 0.39062l-1.4453 5.4102q-1.0156-0.25391-2.0312-0.39063-1.0156-0.15625-2.0703-0.17578-4.1406-0.0391-6.3281 3.4375l-2.207 12.715h-5.293l3.6719-21.133h4.9219l-0.54688 3.4766q0.70313-0.85938 1.5039-1.582 0.80078-0.72265 1.7188-1.2305 0.91797-0.52735 1.9336-0.80079 1.0352-0.29296 2.1875-0.29296z"/>
   <path id="path4530" d="m197.6 365.56q0.80078 0 1.5234-0.23437 0.72265-0.23438 1.2695-0.66406 0.54687-0.42969 0.83984-1.0352 0.3125-0.60547 0.27344-1.3477h5.1172q0.0391 1.6406-0.6836 3.0469-0.70312 1.4062-1.9336 2.4219-1.2305 1.0156-2.8711 1.6016-1.6211 0.5664-3.4375 0.5664-2.4609 0-4.3164-0.82031-1.8555-0.83984-3.1055-2.2852-1.2305-1.4453-1.875-3.3789-0.625-1.9531-0.625-4.1797v-0.58594q0-2.2266 0.625-4.1602 0.625-1.9531 1.875-3.3984t3.0859-2.2852q1.8555-0.83984 4.2969-0.83984 1.9531 0 3.6133 0.58594 1.6602 0.58593 2.8516 1.6602 1.2109 1.0547 1.875 2.5781 0.66406 1.5039 0.625 3.3789h-5.1172q0.0391-0.78125-0.23438-1.4844-0.27343-0.70313-0.80078-1.2109-0.52734-0.50781-1.2695-0.80078-0.74219-0.3125-1.6211-0.3125-1.2891 0-2.1289 0.52734-0.83984 0.52735-1.3477 1.4062-0.48828 0.87891-0.70312 2.0117-0.19531 1.1328-0.19531 2.3438v0.58594q0 1.2305 0.19531 2.3828 0.19531 1.1328 0.68359 2.0117 0.50782 0.85938 1.3477 1.3867 0.85937 0.52734 2.168 0.52734z"/>
  </g>
 </g>
</svg>
