<svg class="rockerboo-logo" viewBox="0 -6 234 46" version="1.1" xmlns="http://www.w3.org/2000/svg" preserveAspectRatio="xMidYMin slice" xmlns:xlink="http://www.w3.org/1999/xlink">
    <g class="logo" stroke="none" stroke-width="1" fill-rule="evenodd" fill="#000000">
        <path d="M216.99,0.7 C220.87,0.7 223.988333,1.78066667 226.345,3.942 C228.714333,6.09066667 229.899,8.90333333 229.899,12.38 C229.899,14.7493333 229.532333,16.9893333 228.799,19.1 C228.079,21.2086667 227.029,23.1026667 225.649,24.782 C223.955667,26.8526667 221.949,28.4026667 219.629,29.432 C217.322333,30.4466667 214.659,30.954 211.639,30.954 C207.772333,30.954 204.659,29.8796667 202.299,27.731 C199.941,25.5843333 198.762,22.7676667 198.762,19.281 C198.762,16.901 199.120333,14.6543333 199.837,12.541 C200.553667,10.4276667 201.608333,8.52766667 203.001,6.841 C204.667667,4.78766667 206.653333,3.251 208.958,2.231 C211.292667,1.21033333 213.97,0.7 216.99,0.7 Z M221.95,13.18 C221.95,10.8886667 221.429333,9.144 220.388,7.946 C219.359333,6.748 217.861667,6.149 215.895,6.149 C213.291,6.149 211.103667,7.319 209.333,9.659 C207.575,11.9856667 206.696,14.909 206.696,18.429 C206.696,20.669 207.210333,22.4056667 208.239,23.639 C209.265667,24.8723333 210.695667,25.489 212.529,25.489 C214.022333,25.489 215.349,25.1756667 216.509,24.549 C217.675667,23.909 218.672333,22.969 219.499,21.729 C220.279,20.545 220.875667,19.2116667 221.289,17.729 C221.715667,16.2436667 221.929,14.7203333 221.929,13.159 L221.95,13.18 Z" class="O2"></path>
        <path d="M184.01,0.7 C187.89,0.7 191.008333,1.78066667 193.365,3.942 C195.734333,6.09066667 196.919,8.90333333 196.919,12.38 C196.919,14.7493333 196.552333,16.9893333 195.819,19.1 C195.099,21.2086667 194.049,23.1026667 192.669,24.782 C190.975667,26.8526667 188.969,28.4026667 186.649,29.432 C184.342333,30.4466667 181.679,30.954 178.659,30.954 C174.792333,30.954 171.679,29.8796667 169.319,27.731 C166.961,25.5843333 165.782,22.7676667 165.782,19.281 C165.782,16.901 166.140333,14.6543333 166.857,12.541 C167.573667,10.4276667 168.628333,8.52766667 170.021,6.841 C171.687667,4.78766667 173.673333,3.251 175.978,2.231 C178.312667,1.21033333 180.99,0.7 184.01,0.7 Z M188.97,13.18 C188.97,10.8886667 188.449,9.144 187.407,7.946 C186.378333,6.748 184.881,6.149 182.915,6.149 C180.311,6.149 178.123667,7.319 176.353,9.659 C174.595,11.9856667 173.716,14.909 173.716,18.429 C173.716,20.669 174.230333,22.4056667 175.259,23.639 C176.285667,24.8723333 177.715667,25.489 179.549,25.489 C181.042333,25.489 182.369,25.1756667 183.529,24.549 C184.695667,23.909 185.692333,22.969 186.519,21.729 C187.299,20.545 187.895667,19.2116667 188.309,17.729 C188.735667,16.2436667 188.949,14.7203333 188.949,13.159 L188.97,13.18 Z" class="O1"></path>
        <path d="M159.57,14.786 C160.846,15.1506667 161.829333,15.8213333 162.52,16.798 C163.222667,17.7613333 163.574,18.959 163.574,20.391 C163.574,23.531 162.402,25.9876667 160.058,27.761 C157.727333,29.521 154.446,30.401 150.214,30.401 L137.734,30.401 L143.418,1.241 L154.688,1.241 C158.151333,1.241 160.71,1.751 162.364,2.771 C164.030667,3.791 164.864,5.361 164.864,7.481 C164.864,9.26766667 164.375667,10.8376667 163.399,12.191 C162.419,13.531 161.142333,14.4043333 159.569,14.811 L159.57,14.786 Z M152.89,12.52 C154.231333,12.52 155.279667,12.1813333 156.035,11.504 C156.790333,10.8266667 157.167667,9.89566667 157.167,8.711 C157.167,7.94433333 156.900333,7.361 156.367,6.961 C155.845667,6.561 155.090333,6.361 154.101,6.361 L149.911,6.361 L148.701,12.531 L152.901,12.531 L152.89,12.52 Z M150.663,25.274 C152.383,25.274 153.704667,24.864 154.628,24.044 C155.551333,23.224 156.013667,22.0453333 156.015,20.508 C156.015,19.5313333 155.696,18.8086667 155.058,18.34 C154.42,17.8713333 153.443333,17.637 152.128,17.637 L147.695,17.637 L146.21,25.274 L150.663,25.274 Z" class="B"></path>
        <path d="M137.69,14.47 C137.208,14.1966667 136.674,13.9883333 136.088,13.845 C135.501333,13.7016667 134.87,13.63 134.194,13.63 C132.41,13.63 130.925667,14.2033333 129.741,15.35 C128.574333,16.4953333 127.781,18.1486667 127.361,20.31 L125.371,30.388 L118.361,30.388 L122.621,8.513 L129.651,8.513 L128.891,12.263 C129.817667,10.883 130.971,9.82833333 132.351,9.099 C133.744333,8.35233333 135.287667,7.979 136.981,7.979 C137.227667,7.979 137.507667,7.99233333 137.821,8.019 C138.134333,8.04566667 138.504333,8.08233333 138.931,8.129 L137.701,14.459 L137.69,14.47 Z" class="r2"></path>
        <path d="M115.936,21.383 L99.57,21.383 C99.57,21.461 99.5633333,21.5783333 99.55,21.735 C99.5366667,21.8783333 99.53,21.989 99.53,22.067 C99.53,23.487 99.9533333,24.548 100.8,25.25 C101.658667,25.9533333 102.941,26.305 104.647,26.305 C106.118333,26.305 107.667667,26.0836667 109.295,25.641 C110.935,25.201 112.653667,24.5443333 114.451,23.671 L113.381,29.101 C111.674333,29.7276667 109.977667,30.191 108.291,30.491 C106.611,30.8043333 104.901,30.961 103.161,30.961 C99.7543333,30.961 97.1176667,30.1743333 95.251,28.601 C93.4043333,27.0276667 92.481,24.801 92.481,21.921 C92.481,20.2543333 92.7743333,18.641 93.361,17.081 C93.961,15.5076667 94.8276667,14.071 95.961,12.771 C97.301,11.211 98.903,10.0276667 100.767,9.221 C102.633,8.407 104.704,8 106.98,8 C109.936,8 112.279333,8.78733333 114.01,10.362 C115.754667,11.9353333 116.627,14.0566667 116.627,16.726 C116.627,17.246 116.587,17.7993333 116.507,18.386 C116.443,18.9593333 116.333,19.5906667 116.177,20.28 L115.936,21.383 Z M109.568,17.067 C109.608,16.8976667 109.634,16.7283333 109.646,16.559 C109.672667,16.3723333 109.686,16.1956667 109.686,16.029 C109.686,14.9823333 109.373333,14.1556667 108.748,13.549 C108.123333,12.9356667 107.276667,12.629 106.208,12.629 C104.841333,12.629 103.676333,13.0056667 102.713,13.759 C101.762333,14.499 101.033,15.599 100.525,17.059 L109.568,17.059 L109.568,17.067 Z" class="e"></path>
        <path d="M73.91,0 L80.94,0 L77.74,16.465 L87.174,8.515 L95.416,8.515 L82.7,18.635 L91.937,30.392 L83.95,30.392 L76.86,20.959 L75.023,30.389 L68.01,30.389 L73.91,0 L73.91,0 Z" class="k"></path>
        <path d="M68.27,9.2 L67.157,14.903 C66.2196667,14.2783333 65.295,13.803 64.383,13.477 C63.4716667,13.1516667 62.58,12.989 61.708,12.989 C59.4293333,12.989 57.5673333,13.7556667 56.122,15.289 C54.6766667,16.809 53.954,18.7623333 53.954,21.149 C53.954,22.669 54.403,23.8523333 55.301,24.699 C56.201,25.5323333 57.471,25.949 59.111,25.949 C60.2043333,25.949 61.281,25.7856667 62.341,25.459 C63.3943333,25.1323333 64.3976667,24.649 65.351,24.009 L64.281,29.729 C63.121,30.129 61.9576667,30.429 60.791,30.629 C59.623,30.8356667 58.4463333,30.939 57.261,30.939 C53.821,30.939 51.171,30.169 49.311,28.629 C47.4616667,27.0776667 46.537,24.8826667 46.537,22.044 C46.537,20.2606667 46.8756667,18.5293333 47.553,16.85 C48.2436667,15.17 49.227,13.66 50.503,12.32 C51.923,10.85 53.5496667,9.75666667 55.383,9.04 C57.2163333,8.32333333 59.333,7.966 61.733,7.968 C62.8396667,7.968 63.9396667,8.07133333 65.033,8.278 C66.1263333,8.47533333 67.213,8.77533333 68.293,9.178 L68.27,9.2 Z" class="c"></path>
        <path d="M41.772,10.47 C43.634,12.1233333 44.565,14.376 44.565,17.228 C44.565,18.8813333 44.2716667,20.4896667 43.685,22.053 C43.0996667,23.6023333 42.2473333,25.0213333 41.128,26.31 C39.8,27.8466667 38.231,29.0056667 36.421,29.787 C34.611,30.5683333 32.5943333,30.9593333 30.371,30.96 C27.1576667,30.96 24.621,30.132 22.761,28.476 C20.9143333,26.8226667 19.991,24.5703333 19.991,21.719 C19.991,20.079 20.291,18.4756667 20.891,16.909 C21.491,15.329 22.351,13.889 23.471,12.589 C24.7776667,11.0756667 26.3276667,9.929 28.121,9.149 C29.9343333,8.369 31.9343333,7.979 34.121,7.979 C37.3513333,7.99 39.91,8.81666667 41.772,10.47 Z M33.53,12.99 C31.72,12.99 30.229,13.81 29.057,15.45 C27.885,17.09 27.2993333,19.18 27.3,21.72 C27.3,23.1 27.6123333,24.155 28.237,24.885 C28.875,25.601 29.7996667,25.959 31.011,25.959 C32.8243333,25.959 34.3176667,25.1356667 35.491,23.489 C36.6643333,21.8356667 37.251,19.7323333 37.251,17.179 C37.251,15.8123333 36.9343333,14.769 36.301,14.049 C35.6743333,13.329 34.7576667,12.969 33.551,12.969 L33.53,12.99 Z" class="o"></path>
        <path d="M19.336,14.47 C18.854,14.1966667 18.32,13.9883333 17.734,13.845 C17.1473333,13.7016667 16.516,13.63 15.84,13.63 C14.056,13.63 12.5716667,14.2033333 11.387,15.35 C10.2196667,16.4946667 9.426,18.148 9.006,20.31 L7.012,30.388 L1.77635684e-15,30.388 L4.258,8.513 L11.288,8.513 L10.528,12.263 C11.452,10.883 12.604,9.82833333 13.984,9.099 C15.3773333,8.35233333 16.9206667,7.979 18.614,7.979 C18.8606667,7.979 19.1406667,7.99233333 19.454,8.019 C19.7673333,8.04566667 20.138,8.08233333 20.566,8.129 L19.336,14.459 L19.336,14.47 Z" class="r1"></path>
    </g>
</svg>
