<svg xmlns="http://www.w3.org/2000/svg" height="8.737mm" width="67.425mm" viewBox="0 0 238.90625 30.957031"><g fill="#fff"><path d="M19.33 14.47q-.723-.41-1.602-.625-.88-.215-1.894-.215-2.676 0-4.453 1.72Q9.624 17.067 9 20.31L7.006 30.388H-.006L4.252 8.513h7.03l-.76 3.75q1.386-2.07 3.456-3.164 2.09-1.115 4.63-1.115.37 0 .84.04t1.112.117l-1.23 6.328zM33.53 12.99q-2.715 0-4.473 2.46T27.3 21.72q0 2.07.937 3.165.957 1.074 2.774 1.074 2.715 0 4.473-2.462 1.758-2.48 1.758-6.31 0-2.05-.956-3.124-.938-1.074-2.754-1.074zm.566-5q4.883 0 7.676 2.48t2.793 6.758q0 2.48-.88 4.825-.878 2.324-2.557 4.257-1.992 2.305-4.707 3.477t-6.054 1.172q-4.824 0-7.617-2.482-2.775-2.48-2.775-6.757 0-2.46.9-4.804.897-2.363 2.577-4.317 1.953-2.266 4.648-3.438 2.715-1.172 5.996-1.172zM69.27 9.2l-1.113 5.703q-1.406-.937-2.774-1.426-1.367-.488-2.675-.488-3.418 0-5.586 2.304-2.168 2.285-2.168 5.86 0 2.284 1.347 3.554 1.35 1.25 3.81 1.25 1.64 0 3.223-.488 1.582-.49 3.007-1.446l-1.074 5.723q-1.738.605-3.496.898-1.758.313-3.535.313-5.156 0-7.95-2.305-2.773-2.324-2.773-6.582 0-2.675 1.016-5.194 1.035-2.52 2.95-4.53 2.128-2.208 4.882-3.283t6.348-1.074q1.66 0 3.3.312 1.64.293 3.262.898zM76.91 0h7.03L80.74 16.465l9.434-7.95h8.242L85.7 18.634l9.237 11.758H86.95l-7.09-9.433-1.837 9.434H71.01L76.91 0z"/><path d="M120.17 20.27l-.234 1.113H103.57q0 .117-.02.352-.02.215-.02.332 0 2.13 1.27 3.183 1.288 1.055 3.847 1.055 2.207 0 4.648-.664 2.46-.663 5.156-1.97l-1.073 5.428q-2.558.938-5.097 1.387-2.52.47-5.137.47-5.117 0-7.91-2.365-2.774-2.363-2.774-6.68 0-2.5.878-4.843.9-2.363 2.598-4.317 2.01-2.343 4.804-3.554 2.813-1.21 6.23-1.21 4.435 0 7.032 2.362 2.617 2.363 2.617 6.367 0 .782-.118 1.66-.098.86-.332 1.895zm-6.602-3.203q.06-.254.078-.508.04-.274.04-.528 0-1.563-.938-2.48-.937-.92-2.54-.92-2.05 0-3.495 1.134-1.426 1.113-2.188 3.3h9.043zM142.69 14.47q-.723-.41-1.602-.625-.88-.215-1.894-.215-2.676 0-4.453 1.72-1.757 1.718-2.382 4.96l-1.992 10.078h-7.012l4.258-21.875h7.03l-.76 3.75q1.386-2.07 3.456-3.164 2.09-1.115 4.63-1.115.37 0 .84.04t1.112.117l-1.23 6.328zM157.89 12.52q2.012 0 3.145-1.016t1.132-2.793q0-1.15-.8-1.756-.782-.606-2.266-.606h-4.198l-1.21 6.172h4.198zm-2.227 12.754q2.58 0 3.965-1.23t1.387-3.536q0-1.465-.957-2.168-.957-.703-2.93-.703h-4.433l-1.485 7.637h4.453zm8.907-10.488q1.914.547 2.95 2.012 1.054 1.445 1.054 3.593 0 4.708-3.516 7.365-3.496 2.636-9.844 2.636h-12.48l5.684-29.16h11.27q5.195 0 7.676 1.525 2.5 1.523 2.5 4.707 0 2.676-1.465 4.707-1.466 2.01-3.83 2.616zM196.97 13.18q0-3.437-1.563-5.234-1.543-1.797-4.492-1.797-3.906 0-6.562 3.514-2.637 3.496-2.637 8.77 0 3.36 1.543 5.215 1.542 1.854 4.296 1.854 2.246 0 3.984-.937 1.758-.957 2.99-2.813 1.17-1.777 1.796-4.004.644-2.226.644-4.57zM192.01.7q5.82 0 9.355 3.242 3.554 3.223 3.554 8.438 0 3.554-1.094 6.72-1.075 3.163-3.145 5.682-2.538 3.106-6.015 4.65-3.457 1.522-7.988 1.522-5.8 0-9.336-3.223-3.534-3.22-3.534-8.456 0-3.574 1.074-6.738t3.164-5.703q2.5-3.086 5.957-4.61Q187.48.7 192.01.7zM230.95 13.18q0-3.437-1.562-5.234-1.543-1.797-4.493-1.797-3.906 0-6.562 3.514-2.637 3.496-2.637 8.77 0 3.36 1.543 5.215 1.542 1.854 4.296 1.854 2.246 0 3.984-.937 1.758-.957 2.99-2.813 1.17-1.777 1.796-4.004.644-2.226.644-4.57zM225.99.7q5.82 0 9.355 3.242 3.554 3.223 3.554 8.438 0 3.554-1.094 6.72-1.075 3.163-3.145 5.682-2.538 3.106-6.015 4.65-3.457 1.522-7.988 1.522-5.8 0-9.336-3.223-3.534-3.22-3.534-8.456 0-3.574 1.074-6.738t3.164-5.703q2.5-3.086 5.957-4.61Q221.46.7 225.99.7z"/></g></svg>